<?xml version="1.0" encoding="UTF-8"?>
<svg width="512px" height="512px" viewBox="0 0 512 512" version="1.1" xmlns="http://www.w3.org/2000/svg" xmlns:xlink="http://www.w3.org/1999/xlink">
    <!-- Generator: Sketch 53.2 (72643) - https://sketchapp.com -->
    <title>Artboard Copy 2</title>
    <desc>Created with Sketch.</desc>
    <defs>
        <filter x="-35.4%" y="-29.1%" width="165.4%" height="158.7%" filterUnits="objectBoundingBox" id="filter-1">
            <feOffset dx="0" dy="21" in="SourceAlpha" result="shadowOffsetOuter1"></feOffset>
            <feGaussianBlur stdDeviation="6.5" in="shadowOffsetOuter1" result="shadowBlurOuter1"></feGaussianBlur>
            <feColorMatrix values="0 0 0 0 0   0 0 0 0 0   0 0 0 0 0  0 0 0 0.0765952797 0" type="matrix" in="shadowBlurOuter1" result="shadowMatrixOuter1"></feColorMatrix>
            <feMerge>
                <feMergeNode in="shadowMatrixOuter1"></feMergeNode>
                <feMergeNode in="SourceGraphic"></feMergeNode>
            </feMerge>
        </filter>
        <linearGradient x1="38.033291%" y1="39.4420548%" x2="51.6857243%" y2="55.9143647%" id="linearGradient-2">
            <stop stop-color="#000000" offset="0%"></stop>
            <stop stop-color="#DDDDDD" offset="43.2635035%"></stop>
            <stop stop-color="#E4E4E4" offset="56.3122875%"></stop>
            <stop stop-color="#000000" offset="100%"></stop>
        </linearGradient>
        <linearGradient x1="43.8643631%" y1="11.8667548%" x2="45.1743794%" y2="33.1207018%" id="linearGradient-3">
            <stop stop-color="#000000" offset="0%"></stop>
            <stop stop-color="#DDDDDD" offset="43.2635035%"></stop>
            <stop stop-color="#E4E4E4" offset="56.3122875%"></stop>
            <stop stop-color="#000000" offset="100%"></stop>
        </linearGradient>
        <path d="M2.00464306,155.44645 C19.8338092,135.397214 96.2130949,54.1794431 207.949366,1.10865642 C212.115482,-0.870249083 217.053044,1.44383067 218.238843,5.95720447 C232.179132,58.9897293 234.687842,106.745173 235.135342,123.546739 C235.233279,127.199985 232.73361,130.375723 229.206349,131.088924 C206.664124,135.635969 124.119288,154.702639 36.9969995,204.919088 C33.6008244,206.876567 29.2975962,205.780746 27.1776235,202.4489 C18.4792566,188.783279 7.14260101,172.750012 1.50742132,164.886426 C-0.549268593,162.016784 -0.338326038,158.08193 2.00464306,155.44645" id="path-4"></path>
        <filter x="-2.8%" y="-2.7%" width="105.5%" height="106.3%" filterUnits="objectBoundingBox" id="filter-5">
            <feOffset dx="0" dy="1" in="SourceAlpha" result="shadowOffsetOuter1"></feOffset>
            <feGaussianBlur stdDeviation="2" in="shadowOffsetOuter1" result="shadowBlurOuter1"></feGaussianBlur>
            <feColorMatrix values="0 0 0 0 0   0 0 0 0 0   0 0 0 0 0  0 0 0 0.119933197 0" type="matrix" in="shadowBlurOuter1"></feColorMatrix>
        </filter>
        <path d="M52.2556088,223.301018 C71.4085675,214.689198 126.959232,191.098262 190.100297,176.988466 C194.443021,176.017989 198.554665,179.382918 198.536702,183.899595 C198.436234,208.311833 196.484536,236.418992 195.529718,248.784535 C195.250218,252.394746 192.328195,255.197394 188.763658,255.26654 C171.488567,255.599873 121.165595,257.321344 72.97133,266.150208 C70.0322962,266.687481 67.0814041,265.288534 65.6469557,262.629071 C60.1517045,252.422435 53.3241038,240.559637 49.1021014,233.31172 C46.9885016,229.682482 48.4603697,225.008943 52.2556088,223.301018" id="path-6"></path>
        <filter x="-4.3%" y="-6.1%" width="108.6%" height="114.5%" filterUnits="objectBoundingBox" id="filter-7">
            <feOffset dx="0" dy="1" in="SourceAlpha" result="shadowOffsetOuter1"></feOffset>
            <feGaussianBlur stdDeviation="2" in="shadowOffsetOuter1" result="shadowBlurOuter1"></feGaussianBlur>
            <feColorMatrix values="0 0 0 0 0   0 0 0 0 0   0 0 0 0 0  0 0 0 0.119933197 0" type="matrix" in="shadowBlurOuter1"></feColorMatrix>
        </filter>
        <path d="M21.0838066,299.725521 C50.8600083,366.191325 88.9266657,420.028864 133.678227,461.715678 C136.312508,464.171073 140.387011,464.328423 143.212343,462.092587 C195.400146,420.826593 234.591058,371.360095 264.780588,310.498517 C266.894994,306.235426 264.484829,301.106909 259.824318,300.069495 C195.910837,285.869558 109.492066,280.37511 27.0283923,289.424574 C22.0464033,289.97164 19.0410442,295.167855 21.0838066,299.725521" id="path-8"></path>
        <filter x="-2.7%" y="-3.1%" width="105.3%" height="107.3%" filterUnits="objectBoundingBox" id="filter-9">
            <feOffset dx="0" dy="1" in="SourceAlpha" result="shadowOffsetOuter1"></feOffset>
            <feGaussianBlur stdDeviation="2" in="shadowOffsetOuter1" result="shadowBlurOuter1"></feGaussianBlur>
            <feColorMatrix values="0 0 0 0 0   0 0 0 0 0   0 0 0 0 0  0 0 0 0.119933197 0" type="matrix" in="shadowBlurOuter1"></feColorMatrix>
        </filter>
    </defs>
    <g id="Artboard-Copy-2" stroke="none" stroke-width="1" fill="none" fill-rule="evenodd">
        <g id="Group" filter="url(#filter-1)" transform="translate(70.000000, 13.000000)">
            <g id="Icon" transform="translate(0.000000, 57.000000)" fill="#E81034">
                <rect id="Rectangle-9" x="0" y="0" width="370" height="370" rx="185"></rect>
            </g>
            <g id="Viddly-Alt" transform="translate(174.500000, 247.000000) rotate(-7.000000) translate(-174.500000, -247.000000) translate(41.500000, 15.000000)">
                <g id="g">
                    <path d="M3.67403315,156.138218 C56.8166887,148.203591 171.438577,160.325287 198.39779,181.489112 C196.311042,208.012528 194.215329,256.15142 194.215329,256.15142 C194.215329,256.15142 102.471896,205.420406 35.6905642,205.782613 C32.7002751,191.005661 16.7807501,174.6683 3.67403315,156.138218 Z" id="Path-2-Copy-2" fill="#FFEBEF"></path>
                    <path d="M3.67403315,156.138218 C56.8166887,148.203591 171.438577,160.325287 198.39779,181.489112 C196.311042,208.012528 194.215329,256.15142 194.215329,256.15142 C194.215329,256.15142 102.471896,205.420406 35.6905642,205.782613 C32.7002751,191.005661 16.7807501,174.6683 3.67403315,156.138218 Z" id="Path-2-Copy" fill="url(#linearGradient-2)" opacity="0.303987873"></path>
                    <path d="M53.2734807,223.217666 C53.2734807,223.217666 361.605308,297.747168 145.341695,459.242902 C222.687047,326.487059 69.0782725,263.587145 69.0782725,263.587145 L53.2734807,223.217666 Z" id="Path-2" fill="#FFEBEF"></path>
                    <path d="M53.2734807,223.217666 C53.2734807,223.217666 361.605308,297.747168 145.341695,459.242902 C222.687047,326.487059 69.0782725,263.587145 69.0782725,263.587145 L53.2734807,223.217666 Z" id="Path-2-Copy-3" fill="url(#linearGradient-3)" opacity="0.303987873"></path>
                    <g id="Page-1">
                        <g id="Fill-1">
                            <use fill="black" fill-opacity="1" filter="url(#filter-5)" xlink:href="#path-4"></use>
                            <use fill="#FFFFFF" fill-rule="evenodd" xlink:href="#path-4"></use>
                        </g>
                        <g id="Fill-4" transform="translate(123.334636, 221.542334) rotate(2.000000) translate(-123.334636, -221.542334) ">
                            <use fill="black" fill-opacity="1" filter="url(#filter-7)" xlink:href="#path-6"></use>
                            <use fill="#FFFFFF" fill-rule="evenodd" xlink:href="#path-6"></use>
                        </g>
                        <g id="Fill-6">
                            <use fill="black" fill-opacity="1" filter="url(#filter-9)" xlink:href="#path-8"></use>
                            <use fill="#FFFFFF" fill-rule="evenodd" xlink:href="#path-8"></use>
                        </g>
                    </g>
                </g>
            </g>
        </g>
    </g>
</svg>